<?xml version="1.0" encoding="utf-8"?>
<!-- Generator: Adobe Illustrator 21.0.0, SVG Export Plug-In . SVG Version: 6.00 Build 0)  -->
<svg version="1.1" id="Layer_1" xmlns="http://www.w3.org/2000/svg" xmlns:xlink="http://www.w3.org/1999/xlink" x="0px" y="0px"
	 viewBox="0 0 121 29" style="enable-background:new 0 0 121 29;" xml:space="preserve">
<style type="text/css">
	.st0{fill:#FFFFFF;}
</style>
<g>
	<g>
		<path class="st0" d="M4.5,13.9h7.6V9.5H5.6c1.6-3,4.8-5.1,8.6-5.1c4.9,0,9,3.6,9.6,8.3h4.5C27.5,5.6,21.5,0,14.1,0
			C10.4,0,7,1.4,4.5,3.8V2H0v7.5v4.4l0,0H4.5L4.5,13.9z"/>
		<path class="st0" d="M23.8,15.1h-7.6v4.4h6.5c-1.6,3-4.8,5.1-8.6,5.1c-4.9,0-9-3.6-9.6-8.3H0.1C0.7,23.4,6.8,29,14.1,29
			c3.7,0,7.1-1.4,9.6-3.8V27h4.5v-7.5v-4.4H23.8z"/>
	</g>
	<g>
		<path class="st0" d="M44.7,24.6c-0.8,0.9-1.7,1.6-2.7,2c-0.9,0.5-1.9,0.7-3,0.7c-4.1,0-6.2-2.2-6.2-6.6V8.9h4.7v11.4
			c0,0.9,0.1,1.6,0.4,2.2c0.2,0.5,0.6,0.9,1.1,1.1c0.5,0.2,1.1,0.2,1.8,0.1c1.3-0.1,2.6-0.9,3.7-2.3V8.9h4.7v17.9h-4.6v-2.2H44.7z"
			/>
		<path class="st0" d="M70.3,26.9H53.3v-3.4l10.3-10.9H54V8.9h15.6v3.4l-10.2,11h10.9v3.6H70.3z"/>
		<path class="st0" d="M89.7,26.9H72.9v-3.4l10.3-10.9h-9.6V8.9h15.5v3.4l-10.2,11h10.9v3.6H89.7z"/>
		<path class="st0" d="M98.5,26.9h-4.7V2.1h4.7V26.9z"/>
		<path class="st0" d="M112.3,27.3c-1.5,0-2.8-0.2-4-0.7c-1.2-0.4-2.1-1.1-2.9-1.9s-1.4-1.8-1.8-3c-0.4-1.2-0.6-2.5-0.6-3.9
			c0-1.5,0.2-2.8,0.6-4c0.4-1.2,1-2.1,1.8-3c0.8-0.8,1.7-1.4,2.9-1.8c1.1-0.4,2.4-0.6,3.8-0.6s2.6,0.2,3.7,0.6
			c1.1,0.4,2.1,1,2.8,1.8c0.8,0.8,1.4,1.8,1.8,2.9c0.4,1.2,0.6,2.5,0.6,3.9v1.1h-13.3c0,0.9,0.2,1.8,0.4,2.4c0.2,0.7,0.6,1.2,1,1.7
			c0.4,0.4,0.9,0.8,1.4,1c0.5,0.2,1.1,0.3,1.7,0.3c1,0,1.8-0.2,2.5-0.6s1.2-1.1,1.5-2.1h4.4c-0.2,0.9-0.5,1.8-1,2.5
			s-1.1,1.3-1.8,1.8c-0.7,0.5-1.6,0.9-2.5,1.1C114.5,27.2,113.5,27.3,112.3,27.3z M116.3,16.1c-0.2-1.6-0.6-2.7-1.4-3.5
			c-0.7-0.8-1.7-1.2-2.9-1.2c-1.2,0-2.1,0.4-2.8,1.2c-0.7,0.8-1.2,1.9-1.4,3.5H116.3z"/>
	</g>
</g>
</svg>
